<svg xmlns="http://www.w3.org/2000/svg" id="Layer_1" data-name="Layer 1" viewBox="0 0 2125.98 1700.79"><defs><style>.cls-1{fill:#000}.cls-1,.cls-2,.cls-3,.cls-4,.cls-5,.cls-6{stroke-width:0}.cls-2{fill:#e0bd81}.cls-8{fill:none;stroke-miterlimit:10;stroke:#dca399;stroke-width:2px}.cls-3{fill:#59a66a}.cls-4{fill:#66a2bb}.cls-5{fill:#c37a68}.cls-6{fill:#fff}</style></defs><path d="M1229.89 778.35c-3.87-72.59-23.65-137.94-24.49-140.68-19.83-64.9-46.99-153.78-104.07-156.39-3.23-.16-6.28.02-9.35.58 1.77-3.6 3.19-7.54 3.87-11.95 2.41-15.56-4.41-31.06-20.28-46.09-92.76-87.84-184.97-123.14-196.48-127.32-59.95-27.11-123.25-41.03-188.12-41.37-43.84-.28-87.85 5.92-130.42 18.28-26.58 3.02-50.7 10.44-71.69 22.07-13.28 7.36-31.17 19.36-36.54 39.41-2.41-1.26-4.93-2.42-7.75-3.27-27.9-8.41-62.38 5.76-75.3 30.93-.44.86-.72 1.67-1.09 2.51-25.4.73-57.26 32.69-76.32 54.82-2.81 3.26-4.88 5.81-6.51 8.04l-2.07 2.84-1.15 3.33a62 62 0 0 0-1.81 6.33c-7.4 1.48-14.14 5.82-20.2 13.03-57.91 68.7-79.93 140.65-80.84 143.68-4.89 16.28-6.72 22.38-7.39 27.42-.89 6.76-1.09 13.11-.73 19.2-17.85 7.6-26.16 35.97-32 102.75-6.26 71.4 1.36 129.07 6.45 157.07.44 2.44 11.13 60.39 36.05 121.75 5.5 13.55 11.25 25.78 11.52 26.37 10.04 21.14 19.9 37.74 30.36 55.34 1.33 2.24 33.24 55.36 93.77 107.16 4.59 3.93 18.07 15.46 36.72 15.46 1.02 0 2.07-.03 3.12-.11 7.74-.53 14.41-2.97 20.18-6.32C381 1272 489.86 1329.8 613.12 1346.9c20.93 2.9 52.7 6.36 85.12 6.36 45.01 0 91.15-6.74 111.29-30.84 8.87 6.82 18.68 9.33 28.43 9.33 18.8 0 37.33-9.26 48.17-14.69l.65-.33c81.99-40.96 115.92-57.91 129.68-68.66 6.76-5.28 164.99-129.9 126.65-184.27-6.21-8.81-14.77-11.88-17.6-12.9-1.51-.54-3.02-.98-4.53-1.41 39.04-16.63 49.58-23.3 59.17-32.51 31.24-29.98 36.38-67.24 44.18-123.65 3.15-22.83 8.43-61.05 5.55-114.96Zm-636 116.04-1.26 2.89s-.06 0-.09-.01l1.31-2.91s.04.02.05.03Zm-272.03-27.68c-.2.41-.39.82-.58 1.25-.28-.46-.57-.95-.87-1.43z" class="cls-6"/><path d="M800.85 1016.16c-5.07-3.3-12.16-7.32-16.03-15.86-4.38-9.68-2.06-19.47-1.23-22.95 27.6-116.39 67.06-215.53 103.09-271.72a691 691 0 0 1 35.05-49.65s6.13-7.93 12.39-15.57c59.73-72.84 135.16-121.38 135.16-121.38 20.92-13.46 25.75-14.65 30.98-14.41 40.62 1.86 66.94 88.01 82.8 139.89.92 3.02 19.82 66.17 23.5 135.1 2.71 50.67-2.08 86.73-5.36 110.52-7.62 55.17-12.33 86.11-37.21 109.99-6.55 6.29-14.17 11.77-54.27 28.77-39.1 16.57-72.93 28.76-98.67 37.38 0 0-67.98 23.96-122.29 22.7-6.08-.14-10.62-1.6-11.79-1.99-10.32-3.46-16.54-10.56-18.97-13.3-28.43-32.05-42.64-48.08-57.15-57.51Z" class="cls-3"/><path d="M425.35 1171.91c10.58-12.01 15.79-16.28 22.49-23.32 23.37-24.54 45.29-61.62 53.08-75.71 2.17-3.93 7.9-14.55 18.44-17.12 8.11-1.98 15.42 1.69 18.58 3.25 0 0 34.53 17.04 88.99 34.3 14.55 4.61 29.52 9.35 50.22 11.08 5.74.48 40.46 3.11 58.49 11.02 3.25 1.43 7.9 3.87 11.9 8.51 4.33 5.01 5.93 10.27 6.63 12.77 5.87 20.97 13.16 80.88 22.28 113.16 10.32 36.58 23.22 38.47 19.05 50.93-11.67 34.87-116.51 31.63-179.16 22.94-127.68-17.71-218.11-77.16-215.74-103.86.65-7.31 3.76-16.03 3.76-16.03 3.59-10.06 9.05-18.35 21-31.92Z" class="cls-2"/><path d="M786.08 1146.44c3.29-7.06 7.88-12.44 7.88-12.44 2.59-2.71 8.58-8.12 17.5-10.25 4.48-1.07 5.78-.38 10.95.03 0 0 1.64.22 7.98.24 97.12.28 159.74-19.47 159.74-19.47 55.37-17.45 92.98-44.04 127.52-31.68 1.92.69 4.54 1.75 6.39 4.37 15.41 21.85-58.07 102.48-121.94 152.4-11.9 9.3-49.85 28.26-125.74 66.17-12.75 6.37-38.18 19.41-52.79 7.92-4.23-3.33-8.35-9.97-8.68-10.52 0 0-3-4.9-8.54-21.63-17.68-68.83-22.67-119.99-20.27-125.14" class="cls-5"/><path d="M780.37 1085.74c-1-1.87-1-5.39-.98-12.33.02-4.65.04-7.01.52-8.31 2.15-5.75 8.05-8.16 9.65-8.74 1.17-.43 6.59-2.37 11.52-.03.24.11 2.63 2.07 7.43 5.99 1.36 1.11 2.33 1.91 3.52 3.18 1.46 1.55 2.72 3.24 3.29 4.02 0 0 .6.81 1.11 1.56 1.55 2.26 7.53 10.97 5.25 15.98-1.32 2.9-5.72 3.65-14.5 5.14-7.65 1.3-12.46 2.15-18.03-.05-3.06-1.21-6.81-2.69-8.78-6.39Z" class="cls-4"/><path d="M561.79 933.79c2.92-3.74 7.16-9.02 14.43-11.78 9.05-3.44 17.72-1.06 22.18.31 27.62 8.47 63.06 29.95 66.35 31.96 50.95 31.13 34.95 20.28 72.09 48.35 59.8 45.21 93.06 70.34 87.76 83.33-6.08 14.9-59.94 6.54-104.82-.43-57.88-8.99-45.74-10.34-101.26-25.05-19.48-5.16-56.5-13.09-71.36-28.02-7.4-7.44-9.84-16.06-9.84-16.06-1.06-3.76-1.89-9.22-.05-19.2 2.16-11.68 5.16-14.33 10.95-29.53 7.37-19.33 6.03-24.24 13.56-33.87ZM512.18 893.11c5.94 2.83 11.69 6.24 15.48 12.66 5.01 8.48 4.06 17.94 3.58 22.76-.55 5.52-1.65 7.65-5.83 19.67-8.5 24.46-7.73 26.46-12.21 32.29-2.65 3.45-9 11.71-18.99 13.92-9.31 2.06-17.4-2.12-30.34-10-16.39-9.98-26.38-17.24-33.74-23.26-12.62-10.32-12.86-11.58-22.61-19.58-30.82-25.31-50.68-29.62-62.46-53.17-3.6-7.2-3.08-9.47-2.64-10.6 3.96-10.03 30.93-2.87 90.89.08 0 0 50.23 1.61 78.85 15.25Z" class="cls-4"/><path d="M332.5 1196.41c4.14 3.55 12.57 10.53 23.05 9.8 12.9-.89 21.5-12.95 27.9-21.61 18.49-25.02 40.1-47.58 59.28-72.07 21.42-27.33 33.36-36.82 35.01-57.73.34-4.28.99-13.79-3.13-24.57-7.76-20.32-25.08-25.88-57.49-46.85-17.2-11.13-28.47-20.01-47.07-34.67-41.1-32.39-52.72-45.57-56.35-50.05-4.26-5.27-6.84-9.01-26.12-41.56-20.98-35.41-31.46-53.12-43.06-73.8-24.42-43.54-36.63-65.31-42.66-79.34-11.29-26.29-14.11-39.32-19.52-39.09-12.64.53-18.94 72.57-19.91 83.64-6.66 76.06 3.23 134.67 6.17 150.86 0 0 10.41 57.31 34.71 117.14 5.33 13.12 10.99 25.14 10.99 25.14 9.58 20.18 19.22 36.4 29.34 53.43 0 0 30.57 51.45 88.87 101.35Z" class="cls-3"/><path d="M362.77 713.55c-10.11-9.13-10.88-10.31-19.6-18.08-12.5-11.14-17.96-15.18-24.44-22.25-.42-.46-1.04-1.13-1.82-2.01-5.54-6.25-29.07-36.99-29.78-69.53-.9-41.13 35.01-69.12 27.13-91.47-.58-1.66-3.62-9.54-8.08-18.98 0 0-4.1-6.25-8.76-15.92-2.1-4.37-5.47-11.75-10.74-12.12-3.96-.28-7.23 3.54-8.7 5.29-55.45 65.79-76.33 135.34-76.33 135.34-4.12 13.73-6.18 20.59-6.59 23.74-5.63 42.79 23.26 65.64 67.03 144.77 8.72 15.76 21.63 29.14 29.02 45.56 2.03 4.5 6.25 14.49 16.4 20.56 5.98 3.58 11.66 4.39 14.56 4.75 47.04 5.95 77.36 9.78 93.3-9.56 10.61-12.86 10.55-30.76 10.53-39.93-.02-5.94-.05-17.98-6.17-30.64-9.28-19.21-21.93-17.88-56.97-49.52ZM553.74 836.04c20.08-63.12 9.04-146.67 9.04-146.67-3.43-25.95-8.15-60.86-19.78-107.75-8.99-36.25-18.04-61.82-36.15-112.95-32.08-75.68-38.72-94.82-57-107.75-5.35-3.79-8.48-5.89-12.02-6.96-16.73-5.04-39.92 3.92-47.78 19.23-6.52 12.71 3.13 18.85 11.12 64.86 5.19 29.87 3.97 43.65 2.64 52.09-2.19 13.87-6.77 26.52-8.08 30.03-4.61 12.37-8.14 17.34-11.06 23.79-14.98 33.11 1.39 71.85 3.61 76.91 5.18 11.82 12.39 20.12 26.82 36.72 20.55 23.64 31.38 30.26 56.96 58.73 3.38 3.76 11.32 12.73 18.04 26.46 4.57 9.33 10.36 21.17 9.84 36.08-.25 7.02-3.72 16.52-10.65 35.21-8.63 23.27-10.96 26.04-8.99 31.1 5.66 14.51 34.12 15.4 38.17 15.53 6.46.2 13.83.36 20.95-4.03 8.44-5.2 12.23-14.08 14.32-20.64Z" class="cls-2"/><path d="M596.34 888.8c-2.85-1.25-10.93-4.57-14.58-12.43-2.23-4.79-1.9-9.3-1.82-10.63 12.23-191.91.33-254.62.33-254.62-16.42-86.53-96.48-224.09-105.18-256.56-.67-2.5-1.61-6.97-.57-12.23 1.5-7.57 7.01-16.11 25.67-26.45 11.74-6.5 33.14-16.19 64.94-19.5 31.23-9.22 74.26-18.18 125.72-17.91 80.11.42 142.82 23.02 179.46 39.67 0 0 94.67 33.09 189.21 122.62 5.93 5.61 14.85 15.25 13.25 25.54-1.14 7.35-7.44 13.56-12.69 18.73-7.17 7.07-13.89 10.9-14.57 11.29-18.54 10.68-92.07 78.45-110.94 97.35-94.46 94.59-167.58 314.68-173.57 337-.86 3.19-3.95 15.8-14.22 21.81-7.35 4.31-15.32 3.44-16.24 3.33-7.42-.91-12.49-4.98-14.13-6.24-19.79-15.19-103.12-53.38-120.05-60.79Z" class="cls-5"/><path d="M460.53 839.03c20.07-37.47 18.48-62.56 13.82-78.18-10.19-34.17-39.1-36.61-81.96-88.3-29.92-36.09-44.88-54.14-45.04-80.03-.19-32.14 22.1-47.83 29.95-105.59 1.68-12.33 2.14-22.52 2.28-28.99.99-11.68.52-20.68-.14-26.88-.26-2.5-.61-4.96-1.16-10.28-.79-7.62-1.24-13.66-1.62-18.45-.49-2.04-1.27-4.65-2.58-7.53-1.33-2.91-2.29-5.01-3.29-5.87-6.22-5.3-36.83 17.84-61.25 46.19-2.46 2.85-4.14 4.94-5.33 6.56-.58 1.69-1.1 3.39-1.42 5.12-.65 3.49-.2 6.63.86 9.58 20.49 19.75 38.58 45.06 30.15 74.49-4.04 14.11-12.5 26.07-20.24 38.33-1.21 1.91-2.4 3.83-3.59 5.75-3.46 8.91-5.49 18.68-4.14 30.06 5.4 45.31 61.3 90.56 113.65 132.93 7.85 6.36 24.03 18.89 24.54 36.16.28 9.66-5.18 44.66-7.13 51.37-2.32 7.98-5.44 11.17-3.68 14.86 2.26 4.73 10.23 5.42 13.15 5.68 2.53.22 7.06.62 11.08-1.63.04-.02.08-.05.12-.08 1.01-1.74 2-3.5 2.96-5.27Z" class="cls-4"/><path d="M199.8 929.92c-8.6-39.47-10.48-57.16-10.48-57.16-6.21-58.22-18.13-169.9-5.12-172.34 11.6-2.18 34.15 84.2 72.64 150.57 2.78 4.79 12.34 21.04 24.24 40.58 15.75 25.87 23.63 38.81 28.47 45.07 19.08 24.66 41.17 37.28 63.79 51.81 34.16 21.93 51.22 23.4 63.8 45.3 2.87 4.99 8.12 14.38 7.98 26.35-.21 18.16-12.63 27.36-31.7 48.52-25.36 28.14-23.15 43.98-42.69 53.43-5.87 2.84-14 6.77-24.23 5.55-8.81-1.05-19.73-6-48.93-45.43-12.74-17.21-21.31-30.64-21.93-31.63-29.31-46.17-24.79-48.41-57.81-109.67-.56-1.04-.57-1.07-.72-1.35-10.82-20.44-16.22-44.61-17.3-49.59Z" style="stroke:#87ca90;fill:none;stroke-miterlimit:10"/><path d="M505.87 353.72c24.55-59.04 177.41-49.18 256-35.11 111.27 19.92 255.15 80.79 251.61 141.9-1.46 25.21-27.69 44.9-52.66 58.51-88.07 79.26-131.12 164.63-141.89 185.78-11.21 22.01-33.36 66.11-49.74 127.27-13.58 50.71-16.02 86.38-36.57 92.16-16.35 4.6-23.22-14.88-65.83-32.18-38.01-15.43-58.56-8.57-67.29-24.87-6.07-11.34-.23-22.31 5.85-45.35 0 0 2.09-7.92 10.24-86.31 8.45-81.24-25.22-186.66-27.79-194.56-41.28-126.59-97.82-149-81.92-187.24Z" class="cls-8"/><path d="M660.93 308.17c-1.9 10.82-5.6 40.44 11.7 66.03 17.83 26.38 47.17 32.52 80.46 39.5 33.45 7.01 60.05 12.58 84.85-2.93 28.54-17.85 35.36-51.55 36.95-61.01M635.88 882.68c-5.52-16.12-1.1-33.16 10.42-41.83 16.1-12.13 37.2-1.23 42.42 1.46 5.91 3.05 23.76 12.27 24.8 30.71.72 12.89-7.04 25.54-19.62 32.72M608.13 622.63c20.75-4.63 64.12-11.38 115.7 3.18 54.58 15.4 89.2 46.42 104.18 61.61" class="cls-8"/><path d="M775.68 647.42c-5.82 13.88-26.55 19.33-41.83 17.44-20.86-2.58-44.63-20.47-42.2-42.2 2-17.93 21.04-31.39 38.03-31.96 29.21-.98 54.68 36.03 46 56.72Z" class="cls-8"/><path d="M1806.59 836.29h-28.99c-8.15 0-15.47 3.54-20.57 9.14-5.1-5.6-12.42-9.14-20.57-9.14h-47.27c-12.97 0-24.12 8.81-27.11 21.43l-.67 2.8-.46-2.17c-2.72-12.78-14.18-22.06-27.26-22.06h-47.38c-13.96 0-25.53 10.34-27.53 23.76-13.59-24.05-38.67-27.36-63.74-27.36s-50.42 3.32-64.11 27.53c-.21.38-.41.76-.62 1.14-.23-.43-.47-.87-.7-1.3-12.09-21.39-33.27-26.37-55.45-27.21a20.1 20.1 0 0 0 1.08-8.41l-20.59-232.65c-.91-10.35-9.58-18.28-19.96-18.28h-28.58c-10.33 0-18.97 7.85-19.95 18.14l-11.19 70.89-4.45-68.99c0-11.07-8.97-20.04-20.04-20.04h-27.97c-10.05 0-18.54 7.44-19.86 17.4q-1.365 10.23-2.61 19.62c-.34-2.67-.7-5.4-1.06-8.17l-1.46-11.37c-1.29-10-9.8-17.48-19.88-17.48h-28.28c-11.07 0-20.04 8.97-20.04 20.04v75.23l-14.09-77c-.91-10.35-9.58-18.28-19.96-18.28h-28.58c-10.34 0-18.97 7.85-19.95 18.14l-22.13 232.65c-.54 5.62 1.33 11.2 5.13 15.39.33.37.74.64 1.09.97-7.77 4.95-12.95 13.62-12.95 23.5v194.21c0 15.36 12.5 27.86 27.86 27.86h58.43c23.92 0 39.53-6.23 49.67-16.12 4.44 9.5 14.07 16.12 25.24 16.12h28.98c8.6 0 16.29-3.91 21.41-10.04 5.11 6.14 12.81 10.04 21.4 10.04h28.99c11.8 0 21.88-7.38 25.93-17.76 14.7 19.54 38.51 21.37 60.06 21.37 23.52 0 49.78-2.12 63.74-27.36.24-.42.47-.85.7-1.27.21.37.41.74.62 1.11 14.06 25.4 40.47 27.52 64.11 27.52s49.77-2.12 63.74-27.36c1.99 13.42 13.56 23.75 27.53 23.75h24c10.1 0 18.97-5.4 23.85-13.47a27.82 27.82 0 0 0 23.86 13.47h6.96c9.88 0 18.77-5.17 23.73-13.26 4.91 7.95 13.71 13.26 23.72 13.26h24.27c7.45 0 14.45-2.9 19.71-8.17.27-.26.45-.58.7-.85 5.1 5.53 12.38 9.02 20.47 9.02h28.99c15.36 0 27.86-12.5 27.86-27.86V864.15c0-15.36-12.5-27.86-27.86-27.86" class="cls-6"/><path d="m1097.86 822.44-5.06-63.31h-24.09l-5.06 63.31h-26.48l22.31-232.66h44.62l20.82 232.66h-27.07Zm-13.38-177.34c-.89-9.53-1.78-18.44-2.38-27.66h-2.08c-.59 9.22-1.49 18.13-2.38 27.66l-7.73 87.29h21.72l-7.14-87.29ZM1236.33 824.61V673.4c0-11.06 0-22.44.27-30.73h-1.34c-.8 8.3-2.67 19.36-28.04 181.95h-11.21c-25.9-162.58-27.5-173.96-28.3-181.95h-1.34c.27 8.3.27 19.67.27 30.73v151.21h-21.1V591.95h37.92c14.15 106.65 16.29 121.71 17.36 135.54h1.34c.8-13.83 3.2-28.89 17.62-135.54h37.65v232.66zM1335.89 824.61l-5.06-63.31h-24.09l-5.06 63.31h-26.48l22.31-232.66h44.62l20.82 232.66h-27.07Zm-13.39-177.34c-.89-9.53-1.78-18.44-2.38-27.66h-2.08c-.59 9.22-1.49 18.13-2.38 27.66l-7.73 87.29h21.72l-7.14-87.29ZM1040.67 1058.37V864.16c0-4.32 3.5-7.82 7.82-7.82h54.55c37.43 0 48.79 16.08 48.79 56.55 0 30.49-3.6 36.32-14.7 44.08v1.94c11.09 6.93 17.47 7.76 17.47 50.72 0 40.48-10.25 56.56-47.68 56.56h-58.43c-4.32 0-7.82-3.5-7.82-7.82m56.27-115.82c8.32 0 11.09-5.27 11.09-24.12 0-16.64-3.6-20.51-12.2-20.51h-3.82c-4.32 0-7.82 3.5-7.82 7.82v28.98c0 4.32 3.5 7.82 7.82 7.82h4.93Zm1.11 81.23c8.6 0 12.2-3.88 12.2-19.96 0-19.12-3.05-26.61-11.09-26.61h-7.15c-4.32 0-7.82 3.5-7.82 7.82v30.93c0 4.32 3.5 7.82 7.82 7.82zM1245.8 1058.37V987.8c0-4.32-3.5-7.82-7.82-7.82h-11.52c-4.32 0-7.82 3.5-7.82 7.82v70.57c0 4.32-3.5 7.82-7.82 7.82h-28.98c-4.32 0-7.82-3.5-7.82-7.82V864.16c0-4.32 3.5-7.82 7.82-7.82h28.98c4.32 0 7.82 3.5 7.82 7.82v65.59c0 4.32 3.5 7.82 7.82 7.82h11.52c4.32 0 7.82-3.5 7.82-7.82v-65.59c0-4.32 3.5-7.82 7.82-7.82h28.98c4.32 0 7.82 3.5 7.82 7.82v194.21c0 4.32-3.5 7.82-7.82 7.82h-28.98c-4.32 0-7.82-3.5-7.82-7.82M1368.62 1069.79c-26.89 0-39.37-4.16-46.58-17.19-7.21-12.75-10.25-25.5-10.25-91.48s3.04-78.17 10.25-91.21c7.21-12.75 19.69-17.19 46.58-17.19s39.08 4.44 46.29 17.19c7.2 13.03 10.26 25.23 10.26 91.21s-3.06 78.73-10.26 91.48c-7.21 13.03-19.69 17.19-46.29 17.19m13.3-109.77c0-46.29-.83-53.78-2.5-59.05-1.39-3.6-3.88-5.26-10.81-5.26s-9.7 1.66-10.81 5.26c-1.94 5.27-2.77 12.75-2.77 59.05s.83 52.39 2.77 57.94c1.11 3.6 3.88 4.99 10.81 4.99s9.42-1.39 10.81-4.99c1.66-5.55 2.5-13.03 2.5-57.94M1497.79 1069.79c-26.89 0-39.37-4.16-46.58-17.19-7.21-12.75-10.25-25.5-10.25-91.48s3.04-78.17 10.25-91.21c7.21-12.75 19.69-17.19 46.58-17.19s39.08 4.44 46.29 17.19c7.2 13.03 10.26 25.23 10.26 91.21s-3.06 78.73-10.26 91.48c-7.21 13.03-19.69 17.19-46.29 17.19m13.31-109.77c0-46.29-.83-53.78-2.5-59.05-1.39-3.6-3.88-5.26-10.81-5.26s-9.7 1.66-10.81 5.26c-1.94 5.27-2.77 12.75-2.77 59.05s.83 52.39 2.77 57.94c1.11 3.6 3.88 4.99 10.81 4.99s9.42-1.39 10.81-4.99c1.66-5.55 2.5-13.03 2.5-57.94M1715.19 1066.19c-4.32 0-7.82-3.5-7.82-7.82V940.34h-1.66l-30.38 119.96a7.83 7.83 0 0 1-7.59 5.9h-6.96a7.82 7.82 0 0 1-7.58-5.89l-30.65-119.97h-1.66v118.03c0 4.32-3.5 7.82-7.82 7.82h-24c-4.32 0-7.82-3.5-7.82-7.82V864.16c0-4.32 3.5-7.82 7.82-7.82h47.39c3.69 0 6.88 2.58 7.65 6.19l18.09 85.01h1.94l20.19-85.18a7.83 7.83 0 0 1 7.61-6.02h47.27c4.31 0 7.82 3.49 7.82 7.81l.25 194.21c0 4.32-3.5 7.83-7.82 7.83h-24.26ZM1772.51 1058.37V864.16c0-4.32 3.5-7.82 7.82-7.82h28.99c4.32 0 7.82 3.5 7.82 7.82v194.21c0 4.32-3.5 7.82-7.82 7.82h-28.99c-4.32 0-7.82-3.5-7.82-7.82" class="cls-1"/></svg>