<?xml version="1.0" encoding="UTF-8"?>
<svg width="800px" height="800px" viewBox="0 0 24 24" version="1.1" xmlns="http://www.w3.org/2000/svg">
    <g stroke="none" stroke-width="1" fill="none" fill-rule="evenodd">
        <circle fill="#4F46E5" cx="12" cy="12" r="12"/>
        <path d="M12,13.5 C14.209139,13.5 16,11.709139 16,9.5 C16,7.290861 14.209139,5.5 12,5.5 C9.790861,5.5 8,7.290861 8,9.5 C8,11.709139 9.790861,13.5 12,13.5 Z" fill="#FFFFFF"/>
        <path d="M12,14.5 C8.13400675,14.5 5,16.6192881 5,19.2 C5,19.3209686 5.08434931,19.4273592 5.2,19.4523607 C7.44752549,20.0405216 9.7160121,20.1904789 12,20 C14.2839879,20.1904789 16.5524745,20.0405216 18.8,19.4523607 C18.9156507,19.4273592 19,19.3209686 19,19.2 C19,16.6192881 15.8659932,14.5 12,14.5 Z" fill="#FFFFFF"/>
    </g>
</svg>
